<svg width="64" height="64" viewBox="0 0 64 64" fill="none" xmlns="http://www.w3.org/2000/svg">
  <!-- Dark rounded background -->
  <rect width="64" height="64" rx="14" fill="#0f1c17"/>

  <!-- SleepOS logo scaled to fit the 64×64 tile -->
  <!-- Original viewBox 0 0 123 111 → scale ≈ 0.43, translate to center -->
  <g transform="translate(6, 8) scale(0.42)">
    <path d="M82.9805 3.43164C89.2813 2.22689 95.4377 2.13422 100.615 3.77441C105.694 5.38321 109.934 8.68272 112.573 14.5801C115.259 20.5823 116.368 29.4726 114.619 42.3252C114.502 43.1829 114.572 44.0878 114.851 44.9453L114.982 45.3096C118.239 53.4008 121.131 65.7269 119.621 77.1602C118.133 88.4266 112.429 98.7067 98.4375 103.563C70.6992 113.192 52.9871 106.425 46.5703 101.447C45.0301 100.253 42.927 99.7329 40.8975 100.359C36.1656 101.82 29.4267 103.113 23.0479 102.728C16.6339 102.34 11.0904 100.305 7.92969 95.6631C0.989444 85.4694 3.12598 72.7214 5.5 66.5449C5.98702 65.2778 6.06477 63.8496 5.62305 62.4902C4.0169 57.5478 2.41753 49.9337 2.54004 42.1631C2.66311 34.3574 4.51318 26.7661 9.39941 21.4248C9.62407 21.1792 9.83022 20.9163 10.0186 20.627C15.3681 12.4062 32.7424 -1.45873 60.543 9.57031C62.0426 10.1652 63.7535 10.1338 65.248 9.41406C70.4683 6.90004 76.7042 4.6317 82.9805 3.43164Z" fill="url(#fv_grad)" stroke="white" stroke-width="4"/>
    <ellipse cx="45.9245" cy="44.9743" rx="7.28457" ry="14.5691" fill="white"/>
    <ellipse cx="75.0626" cy="44.9743" rx="7.28457" ry="14.5691" fill="white"/>
  </g>

  <defs>
    <radialGradient id="fv_grad" cx="0" cy="0" r="1" gradientUnits="userSpaceOnUse"
      gradientTransform="translate(61.2832 55.4856) rotate(90) scale(55.4856 61.2832)">
      <stop stop-color="#809A8D" stop-opacity="0.3"/>
      <stop offset="1" stop-color="#C2D4C4" stop-opacity="0.85"/>
    </radialGradient>
  </defs>
</svg>
